<mxfile host="app.diagrams.net" modified="2024-04-24T08:43:21.059Z" agent="Mozilla/5.0 (X11; Linux x86_64; rv:125.0) Gecko/20100101 Firefox/125.0" etag="_wTqSKHv3Y_lOcaQQRbH" version="24.2.8" type="github">
  <diagram name="Page-1" id="vfYiP-Puu9aFdvhf_-TY">
    <mxGraphModel dx="-11163" dy="1758" grid="1" gridSize="10" guides="1" tooltips="1" connect="1" arrows="1" fold="1" page="1" pageScale="1" pageWidth="850" pageHeight="1100" math="0" shadow="0">
      <root>
        <mxCell id="0" />
        <mxCell id="1" parent="0" />
        <mxCell id="_1zaJDddZiAHjk3oR9Kg-12" value="T" style="whiteSpace=wrap;html=1;aspect=fixed;fontSize=31;fontStyle=1;textShadow=0;fontFamily=Helvetica;" vertex="1" parent="1">
          <mxGeometry x="13460" y="350" width="80" height="80" as="geometry" />
        </mxCell>
        <mxCell id="_1zaJDddZiAHjk3oR9Kg-13" value="G" style="whiteSpace=wrap;html=1;aspect=fixed;fontSize=31;fontStyle=1;textShadow=0;fontFamily=Helvetica;" vertex="1" parent="1">
          <mxGeometry x="13540" y="350" width="80" height="80" as="geometry" />
        </mxCell>
        <mxCell id="_1zaJDddZiAHjk3oR9Kg-14" value="T" style="whiteSpace=wrap;html=1;aspect=fixed;fontSize=31;fontStyle=1;textShadow=0;fontFamily=Helvetica;" vertex="1" parent="1">
          <mxGeometry x="13620" y="350" width="80" height="80" as="geometry" />
        </mxCell>
        <mxCell id="_1zaJDddZiAHjk3oR9Kg-15" value="A" style="whiteSpace=wrap;html=1;aspect=fixed;fontSize=31;fontStyle=1;textShadow=0;fontFamily=Helvetica;" vertex="1" parent="1">
          <mxGeometry x="13700" y="350" width="80" height="80" as="geometry" />
        </mxCell>
        <mxCell id="_1zaJDddZiAHjk3oR9Kg-16" value="A" style="whiteSpace=wrap;html=1;aspect=fixed;fontSize=31;fontStyle=1;textShadow=0;fontFamily=Helvetica;" vertex="1" parent="1">
          <mxGeometry x="13780" y="350" width="80" height="80" as="geometry" />
        </mxCell>
        <mxCell id="_1zaJDddZiAHjk3oR9Kg-17" value="A" style="whiteSpace=wrap;html=1;aspect=fixed;fontSize=31;fontStyle=1;textShadow=0;fontFamily=Helvetica;" vertex="1" parent="1">
          <mxGeometry x="13860" y="350" width="80" height="80" as="geometry" />
        </mxCell>
        <mxCell id="_1zaJDddZiAHjk3oR9Kg-18" value="T" style="whiteSpace=wrap;html=1;aspect=fixed;fontSize=31;fontStyle=1;textShadow=0;fontFamily=Helvetica;" vertex="1" parent="1">
          <mxGeometry x="13940" y="350" width="80" height="80" as="geometry" />
        </mxCell>
        <mxCell id="_1zaJDddZiAHjk3oR9Kg-19" value="A" style="whiteSpace=wrap;html=1;aspect=fixed;fontSize=31;fontStyle=1;textShadow=0;fontFamily=Helvetica;" vertex="1" parent="1">
          <mxGeometry x="14020" y="350" width="80" height="80" as="geometry" />
        </mxCell>
        <mxCell id="_1zaJDddZiAHjk3oR9Kg-20" value="T" style="whiteSpace=wrap;html=1;aspect=fixed;fontSize=31;fontStyle=1;textShadow=0;fontFamily=Helvetica;" vertex="1" parent="1">
          <mxGeometry x="14100" y="350" width="80" height="80" as="geometry" />
        </mxCell>
        <mxCell id="_1zaJDddZiAHjk3oR9Kg-21" value="T" style="whiteSpace=wrap;html=1;aspect=fixed;fontSize=31;fontStyle=1;textShadow=0;fontFamily=Helvetica;" vertex="1" parent="1">
          <mxGeometry x="14180" y="350" width="80" height="80" as="geometry" />
        </mxCell>
        <mxCell id="_1zaJDddZiAHjk3oR9Kg-105" value="" style="edgeStyle=orthogonalEdgeStyle;rounded=0;orthogonalLoop=1;jettySize=auto;html=1;fillColor=#dae8fc;strokeColor=#6c8ebf;" edge="1" parent="1" source="_1zaJDddZiAHjk3oR9Kg-22" target="_1zaJDddZiAHjk3oR9Kg-27">
          <mxGeometry relative="1" as="geometry" />
        </mxCell>
        <mxCell id="_1zaJDddZiAHjk3oR9Kg-22" value="&lt;pre style=&quot;font-size: 17px;&quot;&gt;TGTAAA&lt;/pre&gt;" style="whiteSpace=wrap;html=1;aspect=fixed;fontSize=17;" vertex="1" parent="1">
          <mxGeometry x="13460" y="510" width="80" height="80" as="geometry" />
        </mxCell>
        <mxCell id="_1zaJDddZiAHjk3oR9Kg-106" value="" style="edgeStyle=orthogonalEdgeStyle;rounded=0;orthogonalLoop=1;jettySize=auto;html=1;fillColor=#ffe6cc;strokeColor=#d79b00;" edge="1" parent="1" source="_1zaJDddZiAHjk3oR9Kg-23" target="_1zaJDddZiAHjk3oR9Kg-28">
          <mxGeometry relative="1" as="geometry" />
        </mxCell>
        <mxCell id="_1zaJDddZiAHjk3oR9Kg-23" value="&lt;pre style=&quot;font-size: 17px;&quot;&gt;GTAAAT&lt;/pre&gt;" style="whiteSpace=wrap;html=1;aspect=fixed;fontSize=17;" vertex="1" parent="1">
          <mxGeometry x="13540" y="510" width="80" height="80" as="geometry" />
        </mxCell>
        <mxCell id="_1zaJDddZiAHjk3oR9Kg-107" value="" style="edgeStyle=orthogonalEdgeStyle;rounded=0;orthogonalLoop=1;jettySize=auto;html=1;fillColor=#f8cecc;strokeColor=#b85450;" edge="1" parent="1" source="_1zaJDddZiAHjk3oR9Kg-24" target="_1zaJDddZiAHjk3oR9Kg-29">
          <mxGeometry relative="1" as="geometry" />
        </mxCell>
        <mxCell id="_1zaJDddZiAHjk3oR9Kg-24" value="&lt;pre style=&quot;font-size: 17px;&quot;&gt;TAAATA&lt;/pre&gt;" style="whiteSpace=wrap;html=1;aspect=fixed;fontSize=17;" vertex="1" parent="1">
          <mxGeometry x="13620" y="510" width="80" height="80" as="geometry" />
        </mxCell>
        <mxCell id="_1zaJDddZiAHjk3oR9Kg-108" value="" style="edgeStyle=orthogonalEdgeStyle;rounded=0;orthogonalLoop=1;jettySize=auto;html=1;fillColor=#e1d5e7;strokeColor=#9673a6;" edge="1" parent="1" source="_1zaJDddZiAHjk3oR9Kg-25" target="_1zaJDddZiAHjk3oR9Kg-30">
          <mxGeometry relative="1" as="geometry">
            <Array as="points">
              <mxPoint x="13740" y="610" />
              <mxPoint x="13740" y="610" />
            </Array>
          </mxGeometry>
        </mxCell>
        <mxCell id="_1zaJDddZiAHjk3oR9Kg-25" value="&lt;pre style=&quot;font-size: 17px;&quot;&gt;AAATAT&lt;/pre&gt;" style="whiteSpace=wrap;html=1;aspect=fixed;fontSize=17;" vertex="1" parent="1">
          <mxGeometry x="13700" y="510" width="80" height="80" as="geometry" />
        </mxCell>
        <mxCell id="_1zaJDddZiAHjk3oR9Kg-109" value="" style="edgeStyle=orthogonalEdgeStyle;rounded=0;orthogonalLoop=1;jettySize=auto;html=1;fillColor=#d5e8d4;strokeColor=#82b366;" edge="1" parent="1" source="_1zaJDddZiAHjk3oR9Kg-26" target="_1zaJDddZiAHjk3oR9Kg-31">
          <mxGeometry relative="1" as="geometry" />
        </mxCell>
        <mxCell id="_1zaJDddZiAHjk3oR9Kg-26" value="&lt;pre style=&quot;font-size: 17px;&quot;&gt;AATATT&lt;/pre&gt;" style="whiteSpace=wrap;html=1;aspect=fixed;fontSize=17;" vertex="1" parent="1">
          <mxGeometry x="13780" y="510" width="80" height="80" as="geometry" />
        </mxCell>
        <mxCell id="_1zaJDddZiAHjk3oR9Kg-27" value="1861" style="whiteSpace=wrap;html=1;aspect=fixed;fontSize=25;fontStyle=1" vertex="1" parent="1">
          <mxGeometry x="13460" y="670" width="80" height="80" as="geometry" />
        </mxCell>
        <mxCell id="_1zaJDddZiAHjk3oR9Kg-28" value="3334" style="whiteSpace=wrap;html=1;aspect=fixed;fontSize=25;fontStyle=1" vertex="1" parent="1">
          <mxGeometry x="13540" y="670" width="80" height="80" as="geometry" />
        </mxCell>
        <mxCell id="_1zaJDddZiAHjk3oR9Kg-29" value="1033" style="whiteSpace=wrap;html=1;aspect=fixed;fontSize=25;fontStyle=1" vertex="1" parent="1">
          <mxGeometry x="13620" y="670" width="80" height="80" as="geometry" />
        </mxCell>
        <mxCell id="_1zaJDddZiAHjk3oR9Kg-30" value="22" style="whiteSpace=wrap;html=1;aspect=fixed;fontSize=25;fontStyle=1" vertex="1" parent="1">
          <mxGeometry x="13700" y="670" width="80" height="80" as="geometry" />
        </mxCell>
        <mxCell id="_1zaJDddZiAHjk3oR9Kg-31" value="74" style="whiteSpace=wrap;html=1;aspect=fixed;fontSize=25;fontStyle=1" vertex="1" parent="1">
          <mxGeometry x="13780" y="670" width="80" height="80" as="geometry" />
        </mxCell>
        <mxCell id="_1zaJDddZiAHjk3oR9Kg-32" value="" style="endArrow=classic;html=1;rounded=0;exitX=0.5;exitY=1;exitDx=0;exitDy=0;entryX=0.5;entryY=0;entryDx=0;entryDy=0;fillColor=#dae8fc;strokeColor=#6c8ebf;movable=1;resizable=1;rotatable=1;deletable=1;editable=1;locked=0;connectable=1;" edge="1" parent="1" source="_1zaJDddZiAHjk3oR9Kg-12" target="_1zaJDddZiAHjk3oR9Kg-22">
          <mxGeometry width="50" height="50" relative="1" as="geometry">
            <mxPoint x="13620" y="480" as="sourcePoint" />
            <mxPoint x="13670" y="430" as="targetPoint" />
          </mxGeometry>
        </mxCell>
        <mxCell id="_1zaJDddZiAHjk3oR9Kg-33" value="" style="endArrow=classic;html=1;rounded=0;exitX=0.5;exitY=1;exitDx=0;exitDy=0;fillColor=#dae8fc;strokeColor=#6c8ebf;movable=1;resizable=1;rotatable=1;deletable=1;editable=1;locked=0;connectable=1;" edge="1" parent="1" source="_1zaJDddZiAHjk3oR9Kg-13">
          <mxGeometry width="50" height="50" relative="1" as="geometry">
            <mxPoint x="13510" y="440" as="sourcePoint" />
            <mxPoint x="13500" y="510" as="targetPoint" />
          </mxGeometry>
        </mxCell>
        <mxCell id="_1zaJDddZiAHjk3oR9Kg-34" value="" style="endArrow=classic;html=1;rounded=0;exitX=0.5;exitY=1;exitDx=0;exitDy=0;entryX=0.5;entryY=0;entryDx=0;entryDy=0;fillColor=#dae8fc;strokeColor=#6c8ebf;movable=1;resizable=1;rotatable=1;deletable=1;editable=1;locked=0;connectable=1;" edge="1" parent="1" source="_1zaJDddZiAHjk3oR9Kg-14" target="_1zaJDddZiAHjk3oR9Kg-22">
          <mxGeometry width="50" height="50" relative="1" as="geometry">
            <mxPoint x="13590" y="440" as="sourcePoint" />
            <mxPoint x="13510" y="520" as="targetPoint" />
          </mxGeometry>
        </mxCell>
        <mxCell id="_1zaJDddZiAHjk3oR9Kg-35" value="" style="endArrow=classic;html=1;rounded=0;exitX=0.5;exitY=1;exitDx=0;exitDy=0;fillColor=#dae8fc;strokeColor=#6c8ebf;movable=1;resizable=1;rotatable=1;deletable=1;editable=1;locked=0;connectable=1;" edge="1" parent="1" source="_1zaJDddZiAHjk3oR9Kg-15">
          <mxGeometry width="50" height="50" relative="1" as="geometry">
            <mxPoint x="13670" y="440" as="sourcePoint" />
            <mxPoint x="13500" y="510" as="targetPoint" />
          </mxGeometry>
        </mxCell>
        <mxCell id="_1zaJDddZiAHjk3oR9Kg-36" value="" style="endArrow=classic;html=1;rounded=0;exitX=0.5;exitY=1;exitDx=0;exitDy=0;fillColor=#dae8fc;strokeColor=#6c8ebf;movable=1;resizable=1;rotatable=1;deletable=1;editable=1;locked=0;connectable=1;" edge="1" parent="1" source="_1zaJDddZiAHjk3oR9Kg-16">
          <mxGeometry width="50" height="50" relative="1" as="geometry">
            <mxPoint x="13750" y="440" as="sourcePoint" />
            <mxPoint x="13500" y="510" as="targetPoint" />
          </mxGeometry>
        </mxCell>
        <mxCell id="_1zaJDddZiAHjk3oR9Kg-37" value="" style="endArrow=classic;html=1;rounded=0;exitX=0.5;exitY=1;exitDx=0;exitDy=0;fillColor=#dae8fc;strokeColor=#6c8ebf;movable=1;resizable=1;rotatable=1;deletable=1;editable=1;locked=0;connectable=1;" edge="1" parent="1" source="_1zaJDddZiAHjk3oR9Kg-17">
          <mxGeometry width="50" height="50" relative="1" as="geometry">
            <mxPoint x="13830" y="440" as="sourcePoint" />
            <mxPoint x="13500" y="510" as="targetPoint" />
          </mxGeometry>
        </mxCell>
        <mxCell id="_1zaJDddZiAHjk3oR9Kg-81" value="" style="endArrow=classic;html=1;rounded=0;exitX=0.5;exitY=1;exitDx=0;exitDy=0;entryX=0.5;entryY=0;entryDx=0;entryDy=0;fillColor=#ffe6cc;strokeColor=#d79b00;movable=1;resizable=1;rotatable=1;deletable=1;editable=1;locked=0;connectable=1;" edge="1" parent="1">
          <mxGeometry width="50" height="50" relative="1" as="geometry">
            <mxPoint x="13579.71" y="430" as="sourcePoint" />
            <mxPoint x="13579.71" y="510" as="targetPoint" />
          </mxGeometry>
        </mxCell>
        <mxCell id="_1zaJDddZiAHjk3oR9Kg-82" value="" style="endArrow=classic;html=1;rounded=0;exitX=0.5;exitY=1;exitDx=0;exitDy=0;fillColor=#ffe6cc;strokeColor=#d79b00;movable=1;resizable=1;rotatable=1;deletable=1;editable=1;locked=0;connectable=1;" edge="1" parent="1">
          <mxGeometry width="50" height="50" relative="1" as="geometry">
            <mxPoint x="13660" y="430" as="sourcePoint" />
            <mxPoint x="13580" y="510" as="targetPoint" />
          </mxGeometry>
        </mxCell>
        <mxCell id="_1zaJDddZiAHjk3oR9Kg-83" value="" style="endArrow=classic;html=1;rounded=0;exitX=0.5;exitY=1;exitDx=0;exitDy=0;entryX=0.5;entryY=0;entryDx=0;entryDy=0;fillColor=#ffe6cc;strokeColor=#d79b00;movable=1;resizable=1;rotatable=1;deletable=1;editable=1;locked=0;connectable=1;" edge="1" parent="1">
          <mxGeometry width="50" height="50" relative="1" as="geometry">
            <mxPoint x="13740" y="430" as="sourcePoint" />
            <mxPoint x="13580" y="510" as="targetPoint" />
          </mxGeometry>
        </mxCell>
        <mxCell id="_1zaJDddZiAHjk3oR9Kg-84" value="" style="endArrow=classic;html=1;rounded=0;exitX=0.5;exitY=1;exitDx=0;exitDy=0;fillColor=#ffe6cc;strokeColor=#d79b00;movable=1;resizable=1;rotatable=1;deletable=1;editable=1;locked=0;connectable=1;" edge="1" parent="1">
          <mxGeometry width="50" height="50" relative="1" as="geometry">
            <mxPoint x="13820" y="430" as="sourcePoint" />
            <mxPoint x="13580" y="510" as="targetPoint" />
          </mxGeometry>
        </mxCell>
        <mxCell id="_1zaJDddZiAHjk3oR9Kg-85" value="" style="endArrow=classic;html=1;rounded=0;exitX=0.5;exitY=1;exitDx=0;exitDy=0;fillColor=#ffe6cc;strokeColor=#d79b00;movable=1;resizable=1;rotatable=1;deletable=1;editable=1;locked=0;connectable=1;" edge="1" parent="1">
          <mxGeometry width="50" height="50" relative="1" as="geometry">
            <mxPoint x="13900" y="430" as="sourcePoint" />
            <mxPoint x="13580" y="510" as="targetPoint" />
          </mxGeometry>
        </mxCell>
        <mxCell id="_1zaJDddZiAHjk3oR9Kg-86" value="" style="endArrow=classic;html=1;rounded=0;exitX=0.5;exitY=1;exitDx=0;exitDy=0;fillColor=#ffe6cc;strokeColor=#d79b00;movable=1;resizable=1;rotatable=1;deletable=1;editable=1;locked=0;connectable=1;" edge="1" parent="1">
          <mxGeometry width="50" height="50" relative="1" as="geometry">
            <mxPoint x="13980" y="430" as="sourcePoint" />
            <mxPoint x="13580" y="510" as="targetPoint" />
          </mxGeometry>
        </mxCell>
        <mxCell id="_1zaJDddZiAHjk3oR9Kg-87" value="" style="endArrow=classic;html=1;rounded=0;exitX=0.5;exitY=1;exitDx=0;exitDy=0;entryX=0.5;entryY=0;entryDx=0;entryDy=0;fillColor=#f8cecc;strokeColor=#b85450;movable=1;resizable=1;rotatable=1;deletable=1;editable=1;locked=0;connectable=1;" edge="1" parent="1">
          <mxGeometry width="50" height="50" relative="1" as="geometry">
            <mxPoint x="13659.62" y="430" as="sourcePoint" />
            <mxPoint x="13659.62" y="510" as="targetPoint" />
          </mxGeometry>
        </mxCell>
        <mxCell id="_1zaJDddZiAHjk3oR9Kg-88" value="" style="endArrow=classic;html=1;rounded=0;exitX=0.5;exitY=1;exitDx=0;exitDy=0;fillColor=#f8cecc;strokeColor=#b85450;movable=1;resizable=1;rotatable=1;deletable=1;editable=1;locked=0;connectable=1;" edge="1" parent="1">
          <mxGeometry width="50" height="50" relative="1" as="geometry">
            <mxPoint x="13740" y="430" as="sourcePoint" />
            <mxPoint x="13660" y="510" as="targetPoint" />
          </mxGeometry>
        </mxCell>
        <mxCell id="_1zaJDddZiAHjk3oR9Kg-89" value="" style="endArrow=classic;html=1;rounded=0;exitX=0.5;exitY=1;exitDx=0;exitDy=0;entryX=0.5;entryY=0;entryDx=0;entryDy=0;fillColor=#f8cecc;strokeColor=#b85450;movable=1;resizable=1;rotatable=1;deletable=1;editable=1;locked=0;connectable=1;" edge="1" parent="1">
          <mxGeometry width="50" height="50" relative="1" as="geometry">
            <mxPoint x="13820" y="430" as="sourcePoint" />
            <mxPoint x="13660" y="510" as="targetPoint" />
          </mxGeometry>
        </mxCell>
        <mxCell id="_1zaJDddZiAHjk3oR9Kg-90" value="" style="endArrow=classic;html=1;rounded=0;exitX=0.5;exitY=1;exitDx=0;exitDy=0;fillColor=#f8cecc;strokeColor=#b85450;movable=1;resizable=1;rotatable=1;deletable=1;editable=1;locked=0;connectable=1;" edge="1" parent="1">
          <mxGeometry width="50" height="50" relative="1" as="geometry">
            <mxPoint x="13900" y="430" as="sourcePoint" />
            <mxPoint x="13660" y="510" as="targetPoint" />
          </mxGeometry>
        </mxCell>
        <mxCell id="_1zaJDddZiAHjk3oR9Kg-91" value="" style="endArrow=classic;html=1;rounded=0;exitX=0.5;exitY=1;exitDx=0;exitDy=0;fillColor=#f8cecc;strokeColor=#b85450;movable=1;resizable=1;rotatable=1;deletable=1;editable=1;locked=0;connectable=1;" edge="1" parent="1">
          <mxGeometry width="50" height="50" relative="1" as="geometry">
            <mxPoint x="13980" y="430" as="sourcePoint" />
            <mxPoint x="13660" y="510" as="targetPoint" />
          </mxGeometry>
        </mxCell>
        <mxCell id="_1zaJDddZiAHjk3oR9Kg-92" value="" style="endArrow=classic;html=1;rounded=0;exitX=0.5;exitY=1;exitDx=0;exitDy=0;fillColor=#f8cecc;strokeColor=#b85450;movable=1;resizable=1;rotatable=1;deletable=1;editable=1;locked=0;connectable=1;" edge="1" parent="1">
          <mxGeometry width="50" height="50" relative="1" as="geometry">
            <mxPoint x="14060" y="430" as="sourcePoint" />
            <mxPoint x="13660" y="510" as="targetPoint" />
          </mxGeometry>
        </mxCell>
        <mxCell id="_1zaJDddZiAHjk3oR9Kg-93" value="" style="endArrow=classic;html=1;rounded=0;exitX=0.5;exitY=1;exitDx=0;exitDy=0;entryX=0.5;entryY=0;entryDx=0;entryDy=0;fillColor=#e1d5e7;strokeColor=#9673a6;movable=1;resizable=1;rotatable=1;deletable=1;editable=1;locked=0;connectable=1;" edge="1" parent="1">
          <mxGeometry width="50" height="50" relative="1" as="geometry">
            <mxPoint x="13739.67" y="430" as="sourcePoint" />
            <mxPoint x="13739.67" y="510" as="targetPoint" />
          </mxGeometry>
        </mxCell>
        <mxCell id="_1zaJDddZiAHjk3oR9Kg-94" value="" style="endArrow=classic;html=1;rounded=0;exitX=0.5;exitY=1;exitDx=0;exitDy=0;fillColor=#e1d5e7;strokeColor=#9673a6;movable=1;resizable=1;rotatable=1;deletable=1;editable=1;locked=0;connectable=1;" edge="1" parent="1">
          <mxGeometry width="50" height="50" relative="1" as="geometry">
            <mxPoint x="13820" y="430" as="sourcePoint" />
            <mxPoint x="13740" y="510" as="targetPoint" />
          </mxGeometry>
        </mxCell>
        <mxCell id="_1zaJDddZiAHjk3oR9Kg-95" value="" style="endArrow=classic;html=1;rounded=0;exitX=0.5;exitY=1;exitDx=0;exitDy=0;entryX=0.5;entryY=0;entryDx=0;entryDy=0;fillColor=#e1d5e7;strokeColor=#9673a6;movable=1;resizable=1;rotatable=1;deletable=1;editable=1;locked=0;connectable=1;" edge="1" parent="1">
          <mxGeometry width="50" height="50" relative="1" as="geometry">
            <mxPoint x="13900" y="430" as="sourcePoint" />
            <mxPoint x="13740" y="510" as="targetPoint" />
          </mxGeometry>
        </mxCell>
        <mxCell id="_1zaJDddZiAHjk3oR9Kg-96" value="" style="endArrow=classic;html=1;rounded=0;exitX=0.5;exitY=1;exitDx=0;exitDy=0;fillColor=#e1d5e7;strokeColor=#9673a6;movable=1;resizable=1;rotatable=1;deletable=1;editable=1;locked=0;connectable=1;" edge="1" parent="1">
          <mxGeometry width="50" height="50" relative="1" as="geometry">
            <mxPoint x="13980" y="430" as="sourcePoint" />
            <mxPoint x="13740" y="510" as="targetPoint" />
          </mxGeometry>
        </mxCell>
        <mxCell id="_1zaJDddZiAHjk3oR9Kg-97" value="" style="endArrow=classic;html=1;rounded=0;exitX=0.5;exitY=1;exitDx=0;exitDy=0;fillColor=#e1d5e7;strokeColor=#9673a6;movable=1;resizable=1;rotatable=1;deletable=1;editable=1;locked=0;connectable=1;" edge="1" parent="1">
          <mxGeometry width="50" height="50" relative="1" as="geometry">
            <mxPoint x="14060" y="430" as="sourcePoint" />
            <mxPoint x="13740" y="510" as="targetPoint" />
          </mxGeometry>
        </mxCell>
        <mxCell id="_1zaJDddZiAHjk3oR9Kg-98" value="" style="endArrow=classic;html=1;rounded=0;exitX=0.5;exitY=1;exitDx=0;exitDy=0;fillColor=#e1d5e7;strokeColor=#9673a6;movable=1;resizable=1;rotatable=1;deletable=1;editable=1;locked=0;connectable=1;" edge="1" parent="1">
          <mxGeometry width="50" height="50" relative="1" as="geometry">
            <mxPoint x="14140" y="430" as="sourcePoint" />
            <mxPoint x="13740" y="510" as="targetPoint" />
          </mxGeometry>
        </mxCell>
        <mxCell id="_1zaJDddZiAHjk3oR9Kg-99" value="" style="endArrow=classic;html=1;rounded=0;exitX=0.5;exitY=1;exitDx=0;exitDy=0;entryX=0.5;entryY=0;entryDx=0;entryDy=0;fillColor=#d5e8d4;strokeColor=#82b366;movable=1;resizable=1;rotatable=1;deletable=1;editable=1;locked=0;connectable=1;" edge="1" parent="1">
          <mxGeometry width="50" height="50" relative="1" as="geometry">
            <mxPoint x="13819.81" y="430" as="sourcePoint" />
            <mxPoint x="13819.81" y="510" as="targetPoint" />
          </mxGeometry>
        </mxCell>
        <mxCell id="_1zaJDddZiAHjk3oR9Kg-100" value="" style="endArrow=classic;html=1;rounded=0;exitX=0.5;exitY=1;exitDx=0;exitDy=0;fillColor=#d5e8d4;strokeColor=#82b366;movable=1;resizable=1;rotatable=1;deletable=1;editable=1;locked=0;connectable=1;" edge="1" parent="1">
          <mxGeometry width="50" height="50" relative="1" as="geometry">
            <mxPoint x="13900" y="430" as="sourcePoint" />
            <mxPoint x="13820" y="510" as="targetPoint" />
          </mxGeometry>
        </mxCell>
        <mxCell id="_1zaJDddZiAHjk3oR9Kg-101" value="" style="endArrow=classic;html=1;rounded=0;exitX=0.5;exitY=1;exitDx=0;exitDy=0;entryX=0.5;entryY=0;entryDx=0;entryDy=0;fillColor=#d5e8d4;strokeColor=#82b366;movable=1;resizable=1;rotatable=1;deletable=1;editable=1;locked=0;connectable=1;" edge="1" parent="1">
          <mxGeometry width="50" height="50" relative="1" as="geometry">
            <mxPoint x="13980" y="430" as="sourcePoint" />
            <mxPoint x="13820" y="510" as="targetPoint" />
          </mxGeometry>
        </mxCell>
        <mxCell id="_1zaJDddZiAHjk3oR9Kg-102" value="" style="endArrow=classic;html=1;rounded=0;exitX=0.5;exitY=1;exitDx=0;exitDy=0;fillColor=#d5e8d4;strokeColor=#82b366;movable=1;resizable=1;rotatable=1;deletable=1;editable=1;locked=0;connectable=1;" edge="1" parent="1">
          <mxGeometry width="50" height="50" relative="1" as="geometry">
            <mxPoint x="14060" y="430" as="sourcePoint" />
            <mxPoint x="13820" y="510" as="targetPoint" />
          </mxGeometry>
        </mxCell>
        <mxCell id="_1zaJDddZiAHjk3oR9Kg-103" value="" style="endArrow=classic;html=1;rounded=0;exitX=0.5;exitY=1;exitDx=0;exitDy=0;fillColor=#d5e8d4;strokeColor=#82b366;movable=1;resizable=1;rotatable=1;deletable=1;editable=1;locked=0;connectable=1;" edge="1" parent="1">
          <mxGeometry width="50" height="50" relative="1" as="geometry">
            <mxPoint x="14140" y="430" as="sourcePoint" />
            <mxPoint x="13820" y="510" as="targetPoint" />
          </mxGeometry>
        </mxCell>
        <mxCell id="_1zaJDddZiAHjk3oR9Kg-104" value="" style="endArrow=classic;html=1;rounded=0;exitX=0.5;exitY=1;exitDx=0;exitDy=0;fillColor=#d5e8d4;strokeColor=#82b366;movable=1;resizable=1;rotatable=1;deletable=1;editable=1;locked=0;connectable=1;" edge="1" parent="1">
          <mxGeometry width="50" height="50" relative="1" as="geometry">
            <mxPoint x="14220" y="430" as="sourcePoint" />
            <mxPoint x="13820" y="510" as="targetPoint" />
          </mxGeometry>
        </mxCell>
        <mxCell id="_1zaJDddZiAHjk3oR9Kg-118" value="" style="edgeStyle=orthogonalEdgeStyle;rounded=0;orthogonalLoop=1;jettySize=auto;html=1;" edge="1" parent="1" source="_1zaJDddZiAHjk3oR9Kg-110" target="_1zaJDddZiAHjk3oR9Kg-115">
          <mxGeometry relative="1" as="geometry" />
        </mxCell>
        <mxCell id="_1zaJDddZiAHjk3oR9Kg-110" value="&lt;div style=&quot;font-size: 17px;&quot;&gt;[SEP]&lt;/div&gt;" style="whiteSpace=wrap;html=1;aspect=fixed;fontSize=17;" vertex="1" parent="1">
          <mxGeometry x="13860" y="510" width="80" height="80" as="geometry" />
        </mxCell>
        <mxCell id="_1zaJDddZiAHjk3oR9Kg-116" value="" style="edgeStyle=orthogonalEdgeStyle;rounded=0;orthogonalLoop=1;jettySize=auto;html=1;" edge="1" parent="1" source="_1zaJDddZiAHjk3oR9Kg-111" target="_1zaJDddZiAHjk3oR9Kg-114">
          <mxGeometry relative="1" as="geometry" />
        </mxCell>
        <mxCell id="_1zaJDddZiAHjk3oR9Kg-111" value="[CLS]" style="whiteSpace=wrap;html=1;aspect=fixed;fontSize=17;" vertex="1" parent="1">
          <mxGeometry x="13300" y="510" width="80" height="80" as="geometry" />
        </mxCell>
        <mxCell id="_1zaJDddZiAHjk3oR9Kg-117" value="" style="edgeStyle=orthogonalEdgeStyle;rounded=0;orthogonalLoop=1;jettySize=auto;html=1;" edge="1" parent="1" source="_1zaJDddZiAHjk3oR9Kg-112" target="_1zaJDddZiAHjk3oR9Kg-113">
          <mxGeometry relative="1" as="geometry" />
        </mxCell>
        <mxCell id="_1zaJDddZiAHjk3oR9Kg-112" value="&lt;pre&gt;botrytis_&lt;br&gt;porri_gca_&lt;br&gt;004786265&lt;/pre&gt;" style="html=1;aspect=fixed;" vertex="1" parent="1">
          <mxGeometry x="13380" y="510" width="80" height="80" as="geometry" />
        </mxCell>
        <mxCell id="_1zaJDddZiAHjk3oR9Kg-113" value="4203" style="whiteSpace=wrap;html=1;aspect=fixed;fontSize=25;fontStyle=1" vertex="1" parent="1">
          <mxGeometry x="13380" y="670" width="80" height="80" as="geometry" />
        </mxCell>
        <mxCell id="_1zaJDddZiAHjk3oR9Kg-114" value="2" style="whiteSpace=wrap;html=1;aspect=fixed;fontSize=25;fontStyle=1" vertex="1" parent="1">
          <mxGeometry x="13300" y="670" width="80" height="80" as="geometry" />
        </mxCell>
        <mxCell id="_1zaJDddZiAHjk3oR9Kg-115" value="3" style="whiteSpace=wrap;html=1;aspect=fixed;fontSize=25;fontStyle=1" vertex="1" parent="1">
          <mxGeometry x="13860" y="670" width="80" height="80" as="geometry" />
        </mxCell>
      </root>
    </mxGraphModel>
  </diagram>
</mxfile>
